<svg xmlns="http://www.w3.org/2000/svg" viewBox="0 0 36 24">
  <rect width="36" height="24" fill="#039"/>
  <g fill="#fc0">
    <path d="M18,2.5 19.2,6.1 23,6.1 19.9,8.4 21.1,12 18,9.7 14.9,12 16.1,8.4 13,6.1 16.8,6.1z"/>
    <path d="M18,4.5 19.2,8.1 23,8.1 19.9,10.4 21.1,14 18,11.7 14.9,14 16.1,10.4 13,8.1 16.8,8.1z" transform="rotate(30 18 12)"/>
    <path d="M18,4.5 19.2,8.1 23,8.1 19.9,10.4 21.1,14 18,11.7 14.9,14 16.1,10.4 13,8.1 16.8,8.1z" transform="rotate(60 18 12)"/>
    <path d="M18,4.5 19.2,8.1 23,8.1 19.9,10.4 21.1,14 18,11.7 14.9,14 16.1,10.4 13,8.1 16.8,8.1z" transform="rotate(90 18 12)"/>
    <path d="M18,4.5 19.2,8.1 23,8.1 19.9,10.4 21.1,14 18,11.7 14.9,14 16.1,10.4 13,8.1 16.8,8.1z" transform="rotate(120 18 12)"/>
    <path d="M18,4.5 19.2,8.1 23,8.1 19.9,10.4 21.1,14 18,11.7 14.9,14 16.1,10.4 13,8.1 16.8,8.1z" transform="rotate(150 18 12)"/>
    <path d="M18,4.5 19.2,8.1 23,8.1 19.9,10.4 21.1,14 18,11.7 14.9,14 16.1,10.4 13,8.1 16.8,8.1z" transform="rotate(180 18 12)"/>
    <path d="M18,4.5 19.2,8.1 23,8.1 19.9,10.4 21.1,14 18,11.7 14.9,14 16.1,10.4 13,8.1 16.8,8.1z" transform="rotate(210 18 12)"/>
    <path d="M18,4.5 19.2,8.1 23,8.1 19.9,10.4 21.1,14 18,11.7 14.9,14 16.1,10.4 13,8.1 16.8,8.1z" transform="rotate(240 18 12)"/>
    <path d="M18,4.5 19.2,8.1 23,8.1 19.9,10.4 21.1,14 18,11.7 14.9,14 16.1,10.4 13,8.1 16.8,8.1z" transform="rotate(270 18 12)"/>
    <path d="M18,4.5 19.2,8.1 23,8.1 19.9,10.4 21.1,14 18,11.7 14.9,14 16.1,10.4 13,8.1 16.8,8.1z" transform="rotate(300 18 12)"/>
    <path d="M18,4.5 19.2,8.1 23,8.1 19.9,10.4 21.1,14 18,11.7 14.9,14 16.1,10.4 13,8.1 16.8,8.1z" transform="rotate(330 18 12)"/>
  </g>
</svg> 